<?xml version="1.0" encoding="UTF-8" standalone="no"?>
<svg
        xmlns:dc="http://purl.org/dc/elements/1.1/"
        xmlns:cc="http://creativecommons.org/ns#"
        xmlns:rdf="http://www.w3.org/1999/02/22-rdf-syntax-ns#"
        xmlns="http://www.w3.org/2000/svg"
        viewBox="0 0 398.75 91.25"
        height="91.25"
        width="398.75"
        xml:space="preserve"
        version="1.1"
        id="svg2"><metadata
     id="metadata8"><rdf:RDF><cc:Work
         rdf:about=""><dc:format>image/svg+xml</dc:format><dc:type
        rdf:resource="http://purl.org/dc/dcmitype/StillImage"/></cc:Work></rdf:RDF></metadata>
    <defs
            id="defs6"><clipPath
       id="clipPath18"
       clipPathUnits="userSpaceOnUse"><path
         style="clip-rule:evenodd"
         id="path20"
         d="m 57.5195,47.5859 c 40.4453,0 55.2775,22.1016 55.2775,43.3204 0,55.0347 -88.754,36.0277 -88.754,69.1797 0,13.926 13.0312,23.43 30.7812,23.43 16.4024,0 32.1328,-5.305 43.3672,-17.684 l 11.2346,13.484 c -12.5822,13.039 -30.3362,20.774 -53.0276,20.774 -29.6601,0 -51.67965,-16.797 -51.67965,-41.11 0,-52.601 88.75395,-31.382 88.75395,-69.398 0,-11.4922 -8.5391,-25.6406 -35.2774,-25.6406 -21.1211,0 -37.3008,10.168 -46.9609,21.2188 L 0,71.0156 C 12.3594,57.3125 31.6797,47.5859 57.5195,47.5859 l 0,0 z M 148.52,172.242 c 6.293,0 11.238,4.863 11.238,11.051 0,6.187 -4.945,11.273 -11.238,11.273 -6.29,0 -11.457,-5.086 -11.457,-11.273 0,-6.188 5.167,-11.051 11.457,-11.051 l 0,0 z m 8.316,-122.0037 0,106.7537 -16.852,0 0,-106.7537 16.852,0 z m 181.551,0 0,77.1367 c 0,21.438 -10.563,32.27 -30.336,32.27 -15.727,0 -30.332,-10.168 -36.399,-19.891 -3.144,11.051 -12.582,19.891 -28.984,19.891 -16.18,0 -30.559,-11.274 -35.277,-18.125 l 0,15.472 -16.852,0 0,-106.7537 16.852,0 0,78.0197 c 5.843,8.621 17.527,16.578 28.535,16.578 14.383,0 20,-8.621 20,-22.102 l 0,-72.4957 16.851,0 0,78.2417 c 5.618,8.622 17.524,16.356 28.758,16.356 14.156,0 20,-8.621 20,-22.102 l 0,-72.4957 16.852,0 z m 87.179,-2.6524 c 28.536,0 48.309,21.6602 48.309,56.1411 0,34.699 -19.773,55.918 -48.309,55.918 -15.277,0 -28.761,-7.735 -36.625,-18.567 l 0,15.914 -16.851,0 0,-147.42169 16.851,0 0,56.80469 c 8.989,-11.7148 21.797,-18.7891 36.625,-18.7891 l 0,0 z m -4.269,14.8086 c -13.258,0 -26.512,7.9571 -32.356,17.2422 l 0,48.1793 c 5.844,9.286 19.098,17.02 32.356,17.02 21.797,0 34.828,-17.461 34.828,-41.109 0,-23.6489 -13.031,-41.3325 -34.828,-41.3325 l 0,0 z m 96.168,-12.1562 0,147.4217 -16.852,0 0,-147.4217 16.852,0 z M 545.328,8.46484 c 2.922,-0.88281 8.539,-1.54687 12.133,-1.54687 14.379,0.22266 25.391,6.19143 31.906,21.66013 l 54.375,128.4139 -18.199,0 -36.176,-87.5232 -35.953,87.5232 -18.422,0 L 580.379,49.1328 573.188,33 c -3.821,-8.8398 -8.762,-11.2734 -16.176,-11.2734 -2.696,0 -6.742,0.664 -9.215,1.7695 L 545.328,8.46484 Z M 768.672,47.5859 c 40.445,0 55.273,22.1016 55.273,43.3204 0,55.0347 -88.754,36.0277 -88.754,69.1797 0,13.926 13.032,23.43 30.782,23.43 16.402,0 32.132,-5.305 43.367,-17.684 l 11.234,13.484 c -12.582,13.039 -30.332,20.774 -53.027,20.774 -29.66,0 -51.68,-16.797 -51.68,-41.11 0,-52.601 88.754,-31.382 88.754,-69.398 0,-11.4922 -8.539,-25.6406 -35.277,-25.6406 -21.121,0 -37.297,10.168 -46.961,21.2188 L 711.148,71.0156 c 12.36,-13.7031 31.684,-23.4297 57.524,-23.4297 l 0,0 z m 172.785,2.6524 0,75.3667 c 0,23.208 -11.906,34.04 -34.602,34.04 -16.402,0 -31.23,-9.063 -38.644,-18.125 l 0,56.14 -16.856,0 0,-147.4217 16.856,0 0,78.0197 c 6.289,8.621 18.871,16.578 31.906,16.578 14.828,0 24.488,-5.305 24.488,-24.313 l 0,-70.2847 16.852,0 z m 42.242,122.0037 c 6.293,0 11.235,4.863 11.235,11.051 0,6.187 -4.942,11.273 -11.235,11.273 -6.289,0 -11.457,-5.086 -11.457,-11.273 0,-6.188 5.168,-11.051 11.457,-11.051 l 0,0 z m 8.317,-122.0037 0,106.7537 -16.852,0 0,-106.7537 16.852,0 z m 87.184,-2.6524 c 28.53,0 48.3,21.6602 48.3,56.1411 0,34.699 -19.77,55.918 -48.3,55.918 -15.29,0 -28.77,-7.735 -36.63,-18.567 l 0,15.914 -16.85,0 0,-147.42169 16.85,0 0,56.80469 c 8.99,-11.7148 21.79,-18.7891 36.63,-18.7891 l 0,0 z m -4.27,14.8086 c -13.26,0 -26.52,7.9571 -32.36,17.2422 l 0,48.1793 c 5.84,9.286 19.1,17.02 32.36,17.02 21.79,0 34.82,-17.461 34.82,-41.109 0,-23.6489 -13.03,-41.3325 -34.82,-41.3325 l 0,0 z m 132.79,-14.8086 c 28.53,0 48.31,21.6602 48.31,56.1411 0,34.699 -19.78,55.918 -48.31,55.918 -15.28,0 -28.76,-7.735 -36.63,-18.567 l 0,15.914 -16.85,0 0,-147.42169 16.85,0 0,56.80469 c 8.99,-11.7148 21.8,-18.7891 36.63,-18.7891 l 0,0 z m -4.27,14.8086 c -13.26,0 -26.51,7.9571 -32.36,17.2422 l 0,48.1793 c 5.85,9.286 19.1,17.02 32.36,17.02 21.8,0 34.83,-17.461 34.83,-41.109 0,-23.6489 -13.03,-41.3325 -34.83,-41.3325 l 0,0 z m 87.85,109.8475 c 6.29,0 11.24,4.863 11.24,11.051 0,6.187 -4.95,11.273 -11.24,11.273 -6.29,0 -11.46,-5.086 -11.46,-11.273 0,-6.188 5.17,-11.051 11.46,-11.051 l 0,0 z m 8.32,-122.0037 0,106.7537 -16.85,0 0,-106.7537 16.85,0 z m 123.8,0 0,74.9257 c 0,23.207 -11.9,34.481 -34.38,34.481 -16.4,0 -31.23,-9.063 -38.87,-18.125 l 0,15.472 -16.85,0 0,-106.7537 16.85,0 0,78.0197 c 6.52,8.621 18.88,16.578 32.13,16.578 14.61,0 24.5,-5.746 24.5,-24.754 l 0,-69.8437 16.62,0 z m 77.52,-43.32033 c 26.51,0 51.9,11.05083 51.9,44.86723 l 0,105.2068 -16.85,0 0,-16.133 c -8.76,11.711 -22.02,18.786 -36.62,18.786 -28.54,0 -48.31,-21.219 -48.31,-55.477 0,-34.4805 20,-55.2539 48.31,-55.2539 15.28,0 28.54,8.1757 36.62,19.0078 l 0,-16.1367 c 0,-22.543 -17.07,-31.1641 -35.05,-31.1641 -15.5,0 -26.29,3.9805 -35.28,14.3672 l -8.53,-11.9336 c 13.03,-12.5977 25.61,-16.13673 43.81,-16.13673 l 0,0 z m 2.7,56.80473 c -22.02,0 -35.05,17.0156 -35.05,40.4453 0,23.648 13.03,40.668 35.05,40.668 13.25,0 26.29,-7.957 32.35,-17.02 l 0,-46.8551 c -6.06,-9.2812 -19.1,-17.2382 -32.35,-17.2382 l 0,0 z" /></clipPath>
        <clipPath
                id="clipPath24"
                clipPathUnits="userSpaceOnUse"><path
         id="path26"
         d="m 0,0 3190,0 0,730 L 0,730 0,0 Z" /></clipPath>
        <clipPath
                id="clipPath34"
                clipPathUnits="userSpaceOnUse"><path
         style="clip-rule:evenodd"
         id="path36"
         d="m 105.824,303.496 0,135.899 99.676,0 c 92.289,0 142.742,61.277 142.742,134.078 0,73.41 -50.453,134.687 -142.742,134.687 l -205.5,0 0,-404.664 105.824,0 z m 83.676,226.902 -83.676,0 0,86.758 83.676,0 c 28.305,0 51.07,-15.773 51.07,-43.683 0,-27.301 -22.765,-43.075 -51.07,-43.075 l 0,0 z m 447.254,-226.902 0,183.223 c 0,91.004 -67.066,117.09 -138.438,117.09 -45.527,0 -96.593,-13.348 -134.742,-45.5 l 35.071,-64.918 c 23.996,20.023 53.527,31.547 83.062,31.547 38.145,0 60.293,-17.594 60.293,-43.075 l 0,-29.121 c -17.84,21.844 -52.91,34.582 -92.289,34.582 -45.527,0 -102.133,-23.66 -102.133,-94.644 0,-65.52 56.606,-96.461 102.133,-96.461 38.148,0 73.832,14.558 92.289,36.398 l 0,-29.121 94.754,0 z M 489.09,357.492 c -24.613,0 -47.375,10.922 -47.375,33.977 0,23.054 22.762,33.972 47.375,33.972 20.918,0 43.066,-6.671 52.91,-20.625 l 0,-26.089 c -9.844,-13.954 -31.992,-21.235 -52.91,-21.235 l 0,0 z m 345.117,-61.273 c 64.602,0 103.981,28.511 121.82,53.992 L 894.5,407.242 c -11.687,-16.383 -30.762,-28.515 -55.988,-28.515 -39.375,0 -69.524,27.3 -69.524,71.589 0,44.289 30.149,70.985 69.524,70.985 25.226,0 44.301,-10.922 55.988,-27.91 l 61.527,56.422 c -17.839,26.089 -57.218,53.996 -121.82,53.996 -92.906,0 -161.816,-61.883 -161.816,-153.493 0,-91.609 68.91,-154.097 161.816,-154.097 l 0,0 z m 455.863,7.277 -115.05,159.563 109.51,133.468 -114.44,0 -90.44,-117.089 0,228.722 -94.752,0 0,-404.664 94.752,0 0,70.379 28.3,33.367 65.22,-103.746 116.9,0 z m 111.32,0 0,404.664 -94.75,0 0,-404.664 94.75,0 z m 102.08,319.121 c 30.15,0 54.76,24.266 54.76,53.996 0,29.727 -24.61,53.387 -54.76,53.387 -30.15,0 -54.14,-23.66 -54.14,-53.387 0,-29.73 23.99,-53.996 54.14,-53.996 l 0,0 z m 47.38,-319.121 0,293.031 -94.75,0 0,-293.031 94.75,0 z m 350.65,0 0,207.488 c 0,53.996 -30.76,92.825 -97.82,92.825 -50.46,0 -85.53,-22.45 -103.37,-43.075 l 0,35.793 -94.75,0 0,-293.031 94.75,0 0,189.289 c 11.08,13.348 29.53,28.516 57.83,28.516 29.54,0 48.61,-12.742 48.61,-48.535 l 0,-169.27 94.75,0 z m 359.89,0 -115.06,159.563 109.52,133.468 -114.44,0 -90.45,-117.089 0,228.722 -94.75,0 0,-404.664 94.75,0 0,70.379 28.31,33.367 65.21,-103.746 116.91,0 z" /></clipPath>
        <clipPath
                id="clipPath40"
                clipPathUnits="userSpaceOnUse"><path
         id="path42"
         d="m 0,0 3190,0 0,730 L 0,730 0,0 Z" /></clipPath>
        <clipPath
                id="clipPath50"
                clipPathUnits="userSpaceOnUse"><path
         style="clip-rule:evenodd"
         id="path52"
         d="m 2282.87,708.895 c -9.22,-9.137 -13.82,-20.168 -13.82,-33.106 0,-13.035 4.58,-24.144 13.74,-33.328 9.21,-9.18 20.41,-13.773 33.57,-13.773 13.17,0 24.36,4.593 33.58,13.773 9.21,9.184 13.81,20.293 13.81,33.328 0,12.938 -4.6,23.969 -13.81,33.106 -9.27,9.183 -20.46,13.773 -33.58,13.773 -13.06,0 -24.23,-4.59 -33.49,-13.773 l 0,0 z m 72.55,-71.692 c -10.77,-10.664 -23.78,-15.996 -39.06,-15.996 -15.27,0 -28.26,5.332 -38.98,15.996 -10.66,10.617 -15.99,23.477 -15.99,38.586 0,14.961 5.38,27.746 16.15,38.363 10.71,10.567 23.65,15.848 38.82,15.848 15.28,0 28.29,-5.281 39.06,-15.848 10.76,-10.566 16.15,-23.355 16.15,-38.363 0,-15.059 -5.39,-27.922 -16.15,-38.586 l 0,0 z m -28.65,59.176 c -2.68,1.48 -6.98,2.219 -12.88,2.219 l -9.09,0 0,-21.625 9.61,0 c 4.51,0 7.89,0.445 10.14,1.336 4.16,1.629 6.24,4.738 6.24,9.328 0,4.347 -1.34,7.258 -4.02,8.742 l 0,0 z m -11.46,9.402 c 7.51,0 13.02,-0.715 16.53,-2.144 6.25,-2.571 9.38,-7.606 9.38,-15.11 0,-5.332 -1.97,-9.257 -5.93,-11.777 -2.1,-1.332 -5.03,-2.293 -8.79,-2.887 4.76,-0.742 8.24,-2.691 10.44,-5.851 2.2,-3.16 3.31,-6.246 3.31,-9.258 l 0,-4.367 c 0,-1.383 0.05,-2.864 0.15,-4.446 0.1,-1.578 0.27,-2.617 0.52,-3.109 l 0.38,-0.742 -9.99,0 c -0.05,0.199 -0.1,0.398 -0.15,0.594 -0.05,0.199 -0.1,0.421 -0.15,0.668 l -0.22,1.925 0,4.739 c 0,6.914 -1.91,11.48 -5.72,13.699 -2.25,1.285 -6.2,1.926 -11.86,1.926 l -8.41,0 0,-23.551 -10.67,0 0,59.691 21.18,0 z" /></clipPath>
        <clipPath
                id="clipPath56"
                clipPathUnits="userSpaceOnUse"><path
         id="path58"
         d="m 0,0 3190,0 0,730 L 0,730 0,0 Z" /></clipPath>
        <clipPath
                id="clipPath66"
                clipPathUnits="userSpaceOnUse"><path
         style="clip-rule:evenodd"
         id="path68"
         d="m 2521.96,465.047 0,86.976 63.17,0 c 53.5,0 83.22,35.817 83.22,78.207 0,42.758 -29.35,78.575 -83.22,78.575 l -115.92,0 0,-243.758 52.75,0 z m 55.74,132.66 -55.74,0 0,65.414 55.74,0 c 20.8,0 36.78,-12.426 36.78,-32.891 0,-20.097 -15.98,-32.523 -36.78,-32.523 l 0,0 z m 324.71,-132.66 -56.1,92.824 c 26.75,6.211 54.61,29.602 54.61,72.359 0,45.317 -31.95,78.575 -83.59,78.575 l -115.92,0 0,-243.758 52.76,0 0,86.613 38.64,0 48.67,-86.613 60.93,0 z m -92.51,132.293 -55.73,0 0,65.781 55.73,0 c 20.8,0 36.78,-12.426 36.78,-32.523 0,-20.832 -15.98,-33.258 -36.78,-33.258 l 0,0 z m 248.18,-136.68 c 74.67,0 129.29,52.625 129.29,126.082 0,73.457 -54.62,126.082 -129.29,126.082 -75.05,0 -129.67,-52.625 -129.67,-126.082 0,-73.457 54.62,-126.082 129.67,-126.082 l 0,0 z m 0,46.047 c -46.07,0 -75.42,34.719 -75.42,80.035 0,45.68 29.35,80.035 75.42,80.035 45.69,0 75.05,-34.355 75.05,-80.035 0,-45.316 -29.36,-80.035 -75.05,-80.035 l 0,0 z" /></clipPath>
        <clipPath
                id="clipPath72"
                clipPathUnits="userSpaceOnUse"><path
         id="path74"
         d="m 0,0 3190,0 0,730 L 0,730 0,0 Z" /></clipPath></defs>
    <g
            transform="matrix(1.25,0,0,-1.25,0,91.25)"
            id="g10"><g
       transform="scale(0.1,0.1)"
       id="g12"><g
         id="g14"><g
           clip-path="url(#clipPath18)"
           id="g16"><g
             clip-path="url(#clipPath24)"
             id="g22"><path
               id="path28"
               style="fill:#4176bc;fill-opacity:1;fill-rule:nonzero;stroke:none"
               d="m 0,0 1602.84,0 0,250.09 L 0,250.09 0,0 Z" /></g></g></g><g
            id="g30"><g
           clip-path="url(#clipPath34)"
           id="g32"><g
             clip-path="url(#clipPath40)"
             id="g38"><path
               id="path44"
               style="fill:#4176bc;fill-opacity:1;fill-rule:nonzero;stroke:none"
               d="m 0,246.219 2311.39,0 0,533.781 L 0,780 0,246.219 Z" /></g></g></g><g
            id="g46"><g
           clip-path="url(#clipPath50)"
           id="g48"><g
             clip-path="url(#clipPath56)"
             id="g54"><path
               id="path60"
               style="fill:#4176bc;fill-opacity:1;fill-rule:nonzero;stroke:none"
               d="m 2211.39,571.207 210.18,0 0,208.793 -210.18,0 0,-208.793 z" /></g></g></g><g
            id="g62"><g
           clip-path="url(#clipPath66)"
           id="g64"><g
             clip-path="url(#clipPath72)"
             id="g70"><path
               id="path76"
               style="fill:#4176bc;fill-opacity:1;fill-rule:nonzero;stroke:none"
               d="m 2419.21,410.66 818.16,0 0,352.164 -818.16,0 0,-352.164 z" /></g></g></g></g></g></svg>