<?xml version="1.0" encoding="UTF-8"?>
<svg width="45px" height="67px" viewBox="0 0 45 67" version="1.1" xmlns="http://www.w3.org/2000/svg" xmlns:xlink="http://www.w3.org/1999/xlink">
    <!-- Generator: Sketch 46.2 (44496) - http://www.bohemiancoding.com/sketch -->
    <title>selected-pin</title>
    <desc>Created with Sketch.</desc>
    <defs></defs>
    <g id="Design" stroke="none" stroke-width="1" fill="none" fill-rule="evenodd">
        <g id="dropoff-specifications" transform="translate(-148.000000, -1167.000000)">
            <g id="selected-pin" transform="translate(136.000000, 1166.000000)">
                <polygon id="Stroke-1" stroke-opacity="0.00784313771" stroke="#000000" stroke-width="1.33333335e-11" points="0 0 69.0493306 0 69.0493306 69.0405622 0 69.0405622"></polygon>
                <path d="M33.0861363,66.1825685 C33.0544895,63.871145 29.7012797,59.081459 26.153871,54.0112906 C19.9495017,45.1467731 12.2274852,34.1132267 12.2274852,23.9657051 C12.2274852,11.6721706 22.229568,1.67135781 34.524664,1.67135781 C46.8197611,1.67135781 56.8218428,11.6721706 56.8218428,23.9657051 C56.8218428,34.0226141 49.1257219,45.0273903 42.941489,53.870339 C39.3538018,58.99948 35.9660671,63.8553318 35.9631916,66.127914 C35.9646293,66.9146845 35.3331168,67.6022145 34.5433654,67.6022145 C33.7377908,67.6022145 33.0962058,66.9707822 33.0861363,66.1825685 Z" id="Fill-2" fill="#56B652"></path>
                <path d="M34.524664,4.54804677 C23.8162636,4.54804677 15.1045405,13.2586647 15.1045405,23.9657051 C15.1045405,33.2070733 22.5374126,43.8292486 28.5101801,52.3629474 C30.9916409,55.9084681 33.1595019,59.0066622 34.5088406,61.5985628 C35.8624951,58.9707069 38.0634433,55.8236085 40.5837422,52.2205527 C46.5363677,43.7098657 53.9447874,33.1164552 53.9447874,23.9657051 C53.9447874,13.2586647 45.2330642,4.54804677 34.524664,4.54804677 Z" id="Path" fill="#FFFFFF"></path>
                <path d="M34.524664,33.8011072 C29.3689812,33.8011072 25.1742341,29.6068927 25.1742341,24.4518648 C25.1742341,19.2968368 29.3689812,15.1026224 34.524664,15.1026224 C39.6803465,15.1026224 43.8750938,19.2968368 43.8750938,24.4518648 C43.8750938,29.6068927 39.6803465,33.8011072 34.524664,33.8011072 Z M34.524664,17.9793124 C30.9556783,17.9793124 28.0512895,20.8833309 28.0512895,24.4518648 C28.0512895,28.0203971 30.9556783,30.9244172 34.524664,30.9244172 C38.0936495,30.9244172 40.9980384,28.0203971 40.9980384,24.4518648 C40.9980384,20.8833323 38.0936524,17.9793124 34.524664,17.9793124 Z" id="Fill-3" fill="#56B652"></path>
            </g>
        </g>
    </g>
</svg>