<?xml version="1.0" encoding="UTF-8"?>
<svg width="46px" height="68px" viewBox="0 0 46 68" version="1.1" xmlns="http://www.w3.org/2000/svg" xmlns:xlink="http://www.w3.org/1999/xlink">
    <!-- Generator: Sketch 46.2 (44496) - http://www.bohemiancoding.com/sketch -->
    <title>normal-pin</title>
    <desc>Created with Sketch.</desc>
    <defs></defs>
    <g id="Design" stroke="none" stroke-width="1" fill="none" fill-rule="evenodd">
        <g id="dropoff-specifications" transform="translate(-228.000000, -1167.000000)">
            <g id="normal-pin" transform="translate(216.000000, 1166.000000)">
                <polygon id="Stroke-1" stroke-opacity="0.00784313771" stroke="#000000" stroke-width="1.33333335e-11" points="0 0 69.7017678 0 69.7017678 69.7105073 0 69.7105073"></polygon>
                <path d="M33.3987624,66.8247807 C33.3668167,64.4909279 29.9819228,59.6547646 26.4009952,54.5353971 C20.1380016,45.5848613 12.3430209,34.4442493 12.3430209,24.1982598 C12.3430209,11.7854332 22.439612,1.68757607 34.8508825,1.68757607 C47.2621542,1.68757607 57.3587442,11.7854332 57.3587442,24.1982598 C57.3587442,34.3527575 49.5899038,45.4643201 43.347237,54.3930777 C39.7256502,59.57199 36.3059053,64.4749613 36.3030026,66.7695958 C36.3044539,67.5640009 35.6669743,68.2582024 34.8697607,68.2582024 C34.0565743,68.2582024 33.4089271,67.6206429 33.3987624,66.8247807 Z" id="Fill-2" fill="#9B9B9B"></path>
                <path d="M34.8508825,4.5921794 C24.0413,4.5921794 15.2472611,13.3873221 15.2472611,24.1982598 C15.2472611,33.529303 22.7503654,44.2545521 28.7795687,52.8710589 C31.2844764,56.4509841 33.4728213,59.5792419 34.8349096,62.1962934 C36.2013547,59.5429377 38.4230993,56.365301 40.9672121,52.7272824 C46.9760831,44.1340107 54.454504,33.4378055 54.454504,24.1982598 C54.454504,13.3873221 45.6604649,4.5921794 34.8508825,4.5921794 Z" id="Path" fill="#FFFFFF"></path>
                <path d="M34.8508825,34.1291012 C29.6464845,34.1291012 25.4121018,29.8941875 25.4121018,24.689137 C25.4121018,19.4840865 29.6464845,15.2491729 34.8508825,15.2491729 C40.0552804,15.2491729 44.2896632,19.4840865 44.2896632,24.689137 C44.2896632,29.8941875 40.0552804,34.1291012 34.8508825,34.1291012 Z M34.8508825,18.1537772 C31.248174,18.1537772 28.3163421,21.0859753 28.3163421,24.689137 C28.3163421,28.2922971 31.248174,31.2244968 34.8508825,31.2244968 C38.4535909,31.2244968 41.385423,28.2922971 41.385423,24.689137 C41.385423,21.0859768 38.4535938,18.1537772 34.8508825,18.1537772 Z" id="Fill-3" fill="#9B9B9B"></path>
            </g>
        </g>
    </g>
</svg>